<svg width="200" height="62" viewBox="0 0 200 62" fill="none" xmlns="http://www.w3.org/2000/svg">
<g clip-path="url(#clip0_307_23797)">
<path d="M64.0355 22.944C54.5621 17.7602 46.6204 19.2449 42.6411 20.6366C42.6467 20.4704 42.6552 20.3295 42.6552 20.152C42.6552 15.8303 41.4004 8.14759 33.8318 1.05648L32.7041 0L31.5736 1.05648C24.0022 8.15041 22.7473 15.836 22.7473 20.152C22.7473 20.3267 22.7615 20.4619 22.7615 20.6253C18.7793 19.2336 10.8348 17.7433 1.35854 22.9299L0.00195312 23.6708L0.663288 25.0682C5.26437 34.8076 12.5645 38.2644 16.6031 39.473C14.5428 42.1748 11.6318 47.2881 11.6318 54.7117C11.6318 56.5007 11.8014 58.422 12.1914 60.4758L12.4825 61.9915L14.0172 61.7972C24.7313 60.442 30.2849 54.5905 32.69 51.1365C35.0923 54.5962 40.6486 60.4533 51.3628 61.8056L52.9002 62L53.1913 60.4815C54.7684 52.2184 52.3972 45.857 51.3034 43.5045L48.3133 44.885C49.0425 46.457 50.4217 50.0716 50.4217 54.9399C50.4217 55.9879 50.3284 57.1176 50.1786 58.2756C38.2831 56.095 34.3716 47.6206 34.2048 47.2431L32.6984 43.8398L31.1864 47.2431C31.0197 47.6178 27.1082 56.0865 15.207 58.2643C15.0403 57.0275 14.9329 55.8301 14.9329 54.7117C14.9329 45.0456 20.509 39.9463 20.7859 39.7012L23.5669 37.2192L19.8533 36.8388C19.4407 36.7966 10.1679 35.7035 4.41085 25.1189C15.3144 19.9295 23.4765 24.4428 23.8354 24.6484L27.063 26.5219L26.2773 22.8792C26.249 22.7524 26.0427 21.7354 26.0427 20.1295C26.0427 16.6952 27.0488 10.5705 32.7098 4.63162C38.3622 10.5676 39.3711 16.6924 39.3711 20.1295C39.3711 21.7354 39.1648 22.7552 39.1337 22.8876L38.3452 26.5247L41.5784 24.6569C41.9374 24.4512 50.1108 19.9351 61.0284 25.1499C57.4985 32.2072 51.3063 37.1769 46.4423 39.025C43.879 39.9998 41.5756 40.1717 40.1286 39.4983C39.699 39.3011 38.9868 38.7546 38.9613 37.3882V30.5647C38.9613 30.3027 39.1253 28.9701 40.0947 28.8067V28.587H34.6259V28.8067C35.6547 28.9983 35.666 30.221 35.666 30.7309V34.1849H29.68V30.7309C29.68 30.2238 29.6942 28.9983 30.7201 28.8067V28.587H25.2514V28.8067C26.2208 28.9701 26.3819 30.3027 26.3819 30.5647V41.1577C26.3819 42.0142 26.2123 42.5466 25.3305 42.8622V43.0735H30.8416V42.8622C30.1322 42.5185 29.68 42.0142 29.68 40.6281V36.5402H35.666V37.4614C35.731 40.8084 38.023 42.1466 38.7352 42.4762C41.0527 43.558 44.1248 43.4256 47.618 42.0959C54.7429 39.3857 61.4722 32.689 64.7619 25.0288L65.3497 23.6567L64.0412 22.9383L64.0355 22.944Z" fill="white"/>
<path d="M82.1404 29.9004H92.0632V23.7953C92.0632 22.7163 91.9982 22.0007 91.8682 21.6486C91.7637 21.3894 91.5432 21.1696 91.2013 20.9865C90.7462 20.7273 90.2686 20.5949 89.774 20.5949H89.0109V20.0117H98.1509V20.5949H97.3878C96.2941 20.5949 95.8589 21.3894 95.743 21.7274C95.6243 22.0655 95.5678 22.7558 95.5678 23.7982V37.5521C95.5678 38.6312 95.6328 39.3439 95.7628 39.6792C95.8673 39.9384 96.4863 40.7329 97.3907 40.7329H98.1537V41.316H89.0138V40.7329H89.7768C90.6388 40.7329 91.2719 40.4793 91.6732 39.975C91.9332 39.6341 92.0661 38.8284 92.0661 37.5521V31.0555H82.1432V37.5521C82.1432 38.6312 82.2082 39.3439 82.3382 39.6792C82.4428 39.9384 82.6633 40.1666 83.0024 40.361C83.4602 40.6089 83.9379 40.7329 84.4296 40.7329H85.2125V41.316H76.0527V40.7329H76.8158C77.6919 40.7329 77.8615 40.4793 78.2685 39.975C78.5144 39.6341 78.6415 38.8284 78.6415 37.5521V23.7982C78.6415 22.7191 78.5737 22.0035 78.4437 21.6514C78.3391 21.3922 77.9265 20.5977 76.8186 20.5977H76.0556V20.0145H85.2153V20.5977H84.4325C83.9379 20.5977 83.4602 20.7217 83.0052 20.9696C82.6802 21.1386 82.4541 21.3922 82.3298 21.7303C82.2054 22.0683 82.1432 22.7586 82.1432 23.801V29.906L82.1404 29.9004Z" fill="white"/>
<path d="M114.2 20.5919V20.0087H121.774V20.5919H120.972C118.894 20.5919 119.169 22.7245 119.169 23.9106V32.554C119.169 34.6867 118.957 36.3433 118.533 37.5181C117.391 40.6904 113.96 41.8201 110.871 41.8201C106.86 41.8201 103.401 40.3889 102.126 36.9631C101.787 36.0278 101.618 34.667 101.618 32.1033V23.7895C101.618 22.4766 101.505 20.589 99.7948 20.589H98.9922V20.0059H108.231V20.589H107.409C106.521 20.589 105.888 20.8708 105.512 21.4286C105.252 21.8061 105.119 22.5949 105.119 23.7895V33.0583C105.119 34.9177 105.23 37.0533 106.484 38.5408C107.533 39.7832 109.271 40.4706 110.891 40.4706C113.12 40.4706 115.743 39.3719 116.665 37.211C117.069 36.2616 117.272 34.6614 117.272 32.4104V23.7867C117.272 22.4456 117.128 21.6145 116.84 21.2877C116.436 20.8201 115.831 20.5834 115.022 20.5834H114.2V20.5919Z" fill="white"/>
<path d="M135.34 41.3132L127.082 23.384V37.6282C127.082 38.9298 127.223 39.7412 127.512 40.068C127.89 40.5103 128.504 40.73 129.349 40.73H130.092V41.3132H122.656V40.73H123.419C125.157 40.73 125.143 38.8256 125.143 37.6282V23.7164C125.143 22.767 125.135 21.595 124.018 20.9076C123.637 20.671 123.532 20.5949 122.656 20.5949V20.0117H128.704L136.474 36.6929L144.087 20.0117H150.136V20.5949H149.627C148.711 20.5949 148.299 20.8682 147.923 21.4147C147.702 21.7528 147.589 22.5191 147.589 23.7164V37.6282C147.589 38.9298 147.733 39.7412 148.019 40.068C148.409 40.5103 148.79 40.73 149.627 40.73H150.136V41.3132H141.072V40.73H141.815C142.728 40.73 143.37 40.4596 143.731 39.9102C143.966 39.5862 144.085 38.8256 144.085 37.6282V23.384L135.846 41.3132H135.335H135.34Z" fill="white"/>
<path d="M165.582 34.1938H157.321L155.871 37.5492C155.504 38.369 155.326 38.9888 155.326 39.403C155.326 39.7298 155.481 40.0143 155.795 40.2594C156.106 40.5073 156.779 40.6623 157.813 40.7271V41.3103H151.078V40.7271C151.966 40.5721 152.073 40.3693 152.333 40.1214C152.867 39.6143 153.461 38.5916 154.113 37.059L161.628 19.5186H163.132L170.568 37.2534C171.156 38.6705 171.693 39.5917 172.184 40.0143C172.673 40.4369 172.888 40.6764 173.761 40.7271V41.3103H165.325V40.7271C166.187 40.6905 166.764 40.5468 167.058 40.3073C167.351 40.0678 167.498 39.772 167.498 39.4199C167.498 38.9635 167.286 38.2422 166.871 37.2534L165.579 34.191L165.582 34.1938ZM165.153 33.0218L161.535 24.4178L157.816 33.0218H165.156H165.153Z" fill="white"/>
<path d="M173.708 20.0088H179.756L192.579 35.6785V23.7163C192.579 22.4035 192.429 21.5837 192.129 21.2597C191.75 20.8174 191.137 20.5948 190.289 20.5948H189.543V20.0116H196.982V20.5948H196.473C195.56 20.5948 195.148 20.8681 194.769 21.4146C194.546 21.7527 194.435 22.519 194.435 23.7163V41.6681H193.398L179.307 24.5164V37.6281C179.307 38.9297 179.451 39.7411 179.736 40.0679C180.129 40.5102 180.74 40.7299 181.576 40.7299H182.339V41.3131H174.901V40.7299H175.624C176.551 40.7299 176.729 40.4595 177.094 39.9101C177.328 39.5861 177.447 38.8254 177.447 37.6281V22.8176C176.834 22.0879 176.599 21.6118 176.28 21.3836C175.96 21.1554 175.72 20.9385 175.096 20.73C174.796 20.637 174.332 20.592 173.705 20.592V20.0088H173.708Z" fill="white"/>
<path d="M200.001 45.584H73.0332V45.9108H200.001V45.584Z" fill="white"/>
<path d="M80.6432 55.1231L79.4901 55.247C79.0605 55.309 79.0125 55.4668 78.792 55.4668C78.5716 55.4668 77.2461 54.954 77.2461 54.7089C77.2461 54.6723 77.297 54.6469 77.3931 54.6469C77.4665 54.6469 77.5796 54.6582 77.7265 54.6948C78.1646 54.7934 79.0605 54.8301 80.1147 54.8301C82.1863 54.8301 84.8684 54.6948 85.948 54.6103C86.598 54.5483 86.4765 54.3765 86.9909 54.3765C87.59 54.3765 88.2881 54.4638 88.2881 54.7934C88.2881 54.9399 88.1185 55.0864 87.8105 55.0864H87.7766C85.9 55.0132 85.7784 55.0019 84.9221 55.0132C84.9362 56.774 84.9221 58.4954 84.713 59.2166C84.5886 59.5349 84.4529 59.704 84.3455 59.704C84.2466 59.704 84.1731 59.5687 84.159 59.2898V55.0132C83.6333 55.0498 82.1609 55.0752 81.4148 55.1118C81.3893 57.5797 81.3893 58.0418 81.1547 58.7264C81.0445 59.0447 80.9117 59.2138 80.7986 59.2138C80.7167 59.2138 80.6432 59.0926 80.6432 58.8475V55.1231ZM82.9833 50.6661C84.3569 50.838 84.9673 51.6324 84.9673 52.4241C84.9673 53.2158 84.2297 54.1483 82.7233 54.1483C81.2169 54.1483 80.4341 53.2665 80.4341 52.3649C80.4341 51.6212 81.0445 50.8746 82.3446 50.6774C82.4407 50.5929 82.4916 50.4943 82.4916 50.4097C82.4916 50.2999 82.4407 50.2013 82.3446 50.1055C81.9291 50.1167 81.4119 50.1393 80.4567 50.2041C80.1514 50.2773 80.1006 50.3985 79.9197 50.3985C79.6992 50.3985 78.6451 49.959 78.6451 49.7646C78.6451 49.7167 78.6931 49.6913 78.792 49.6913C78.8542 49.6913 78.939 49.7054 79.0351 49.728C79.5975 49.7899 80.1514 49.8153 80.7986 49.8153C81.8161 49.8153 83.8877 49.7167 84.6112 49.6434C85.2612 49.5702 84.9927 49.3504 85.7982 49.3504C86.3013 49.3504 86.6941 49.4603 86.6941 49.7054C86.6941 49.9505 86.3861 49.9871 86.1063 49.9871C85.0888 50.0012 83.4722 50.0097 82.8816 50.0604C83.0059 50.2182 83.0427 50.3168 83.0427 50.39C83.0427 50.4745 82.9805 50.5252 82.9805 50.621V50.6718L82.9833 50.6661ZM82.028 48.894C81.7963 48.894 80.9993 48.3813 80.9993 48.2094C80.9993 48.1728 81.0332 48.1475 81.1208 48.1475C81.183 48.1475 81.2678 48.17 81.4035 48.1954C81.9404 48.2686 82.0394 48.2686 83.6079 48.2686C83.9386 48.3052 84.1223 48.4405 84.1223 48.5616C84.1223 48.7081 83.9131 48.8433 83.4468 48.8659L82.0252 48.8912L82.028 48.894ZM81.1689 52.3142C81.1689 52.9622 81.6719 53.6327 82.7148 53.6327C83.7577 53.6327 84.2438 52.9847 84.2438 52.3396C84.2438 51.6944 83.7068 51.0324 82.6526 51.0324C81.6691 51.0324 81.1661 51.6803 81.1661 52.3142H81.1689Z" fill="white"/>
<path d="M90.3124 50.9082C90.2389 50.7843 89.9704 50.6631 89.5408 50.5307C89.4164 50.4941 89.2949 50.4434 89.2949 50.3701C89.2949 50.3194 89.3938 50.2603 89.6849 50.1983C90.1654 50.2349 90.79 50.2828 91.1093 50.3927C92.0505 50.3927 92.8333 50.3814 93.913 50.3194C94.2465 50.3082 94.0345 50.2349 94.7241 50.2349C95.1395 50.2349 95.2611 50.2969 95.2611 50.3814C95.2611 50.5025 94.9926 50.6857 94.9671 50.8688L94.7834 51.8717C94.8823 51.8943 95.5296 51.9084 95.7019 51.9084C96.2785 51.9084 96.9031 51.8717 97.4175 51.821V49.3897C97.4033 49.1333 96.807 48.8178 96.3633 48.6347C96.1768 48.5727 96.0552 48.4995 96.0552 48.4262C96.0552 48.3642 96.1683 48.3022 96.4594 48.2656C97.0727 48.3642 97.6973 48.522 97.946 48.6206C98.1777 48.7305 98.2399 48.8037 98.2399 48.8911C98.2399 48.953 98.2003 49.0376 98.2003 49.1841L98.1862 53.9002C98.1523 55.5258 98.1127 56.2188 97.8697 56.5992C97.7962 56.7203 97.7086 56.8076 97.6351 56.8076C97.5136 56.8076 97.4146 56.5879 97.4146 55.9653V52.1901C96.79 52.2267 96.4085 52.2521 96.092 52.2887C95.8461 52.3507 95.7726 52.4606 95.5889 52.4606C95.3063 52.4606 94.7919 52.1788 94.7297 52.1309L94.4584 53.7565C94.8145 53.841 95.0237 53.965 95.0237 54.0608C95.0237 54.2073 94.5941 54.2073 94.3341 54.2073C93.5766 54.2073 91.8103 54.2693 91.1828 54.2805C91.1489 54.4158 91.0274 54.9285 90.7928 54.9285C90.6713 54.9285 90.6458 54.6214 90.5978 53.903L90.3039 50.9111L90.3124 50.9082ZM91.327 50.7251C91.2167 50.7871 91.1178 50.7392 91.1093 50.9702L91.2309 53.9509C93.229 53.9509 93.4495 53.9509 94.0345 53.7791C94.0995 53.1677 94.1221 51.7027 94.1475 50.6519L91.327 50.7251ZM92.8475 56.7118C92.822 56.4667 92.5394 56.3569 91.9148 56.1625C91.7792 56.1399 91.6944 56.0892 91.6944 56.0272C91.6944 55.9653 91.7933 55.9033 92.0759 55.8554C92.6383 55.8554 93.1555 55.9033 93.3986 55.9399C93.6077 55.9906 93.6586 56.0498 93.6586 56.1597C93.6586 56.2329 93.619 56.3428 93.619 56.4893C93.619 57.0274 93.619 57.6866 93.6332 58.1374C93.6332 58.4079 93.7943 58.5177 94.221 58.5403L96.7816 58.5177C97.7001 58.4557 97.2592 58.174 98.3642 58.174C98.7543 58.174 99.2715 58.2106 99.2715 58.591C99.2715 58.7262 99.1612 58.8586 98.9408 58.8586H94.1758C93.3647 58.8445 92.8983 58.6501 92.8644 58.0275L92.8503 56.709L92.8475 56.7118Z" fill="white"/>
<path d="M112.555 49.3561C112.532 49.1251 112.165 48.8321 111.467 48.5278C111.294 48.4658 111.195 48.3926 111.195 48.3306C111.195 48.2574 111.32 48.1954 111.602 48.1729C112.374 48.294 112.804 48.4658 113.097 48.5645C113.281 48.6377 113.318 48.7222 113.318 48.8321C113.318 48.9307 113.278 49.0293 113.278 49.1617L113.264 56.3571C113.264 58.6024 113.191 58.9095 112.97 59.3744C112.888 59.5209 112.801 59.5941 112.727 59.5941C112.628 59.5941 112.555 59.4476 112.555 59.0701V54.723C110.449 55.4302 108.157 55.9936 106.501 56.3345C106.244 56.4078 106.218 56.5317 106.038 56.5317C105.843 56.5317 105.461 56.3852 104.418 55.8612C104.282 55.7739 104.209 55.7006 104.209 55.6415C104.209 55.5908 104.26 55.5682 104.37 55.5682C104.41 55.5682 104.469 55.5682 104.531 55.5823C104.961 55.6668 105.402 55.7035 105.854 55.7035C106.919 55.7035 108.036 55.495 109.127 55.2752C109.288 54.5315 109.494 53.4186 109.618 52.2213V52.2072C109.618 52.0128 109.347 51.7677 109.064 51.6212C108.929 51.548 108.855 51.486 108.855 51.4381C108.855 51.3761 108.968 51.3395 109.163 51.3395C109.457 51.3395 110.082 51.5959 110.376 51.7311C110.523 51.8043 110.571 51.8776 110.571 51.9621C110.571 52.0861 110.475 52.2185 110.424 52.3791C110.141 53.5398 109.774 54.5878 109.565 55.1879C109.994 55.1259 111.515 54.8695 112.555 54.4779V49.3589V49.3561ZM108.968 50.3844C109.774 50.2745 109.31 50.0041 110.559 50.0041C110.927 50.0041 111.455 50.0661 111.455 50.3591C111.455 50.5196 111.221 50.6661 110.732 50.6661C109.274 50.6774 107.657 50.8239 106.442 50.9591C106.111 51.0211 106.052 51.131 105.891 51.131C105.645 51.131 104.616 50.6042 104.616 50.4718C104.616 50.4351 104.664 50.4239 104.737 50.4239C104.8 50.4239 104.873 50.4239 104.972 50.4464C105.498 50.5084 106.038 50.5337 106.563 50.5337C107.62 50.5337 108.635 50.4239 108.968 50.3872V50.3844ZM107.521 54.4272C107.473 54.878 107.326 55.0752 107.179 55.0752C107.044 55.0752 106.911 54.9033 106.871 54.585C106.823 54.2666 106.637 53.2411 106.06 51.9959C105.987 51.886 105.95 51.7874 105.95 51.7283C105.95 51.6776 105.964 51.655 105.998 51.655C106.049 51.655 106.134 51.7029 106.258 51.8381C107.055 52.6805 107.592 53.3285 107.533 54.0244L107.518 54.4272H107.521Z" fill="white"/>
<path d="M120.79 54.3544C119.922 54.3685 118.512 54.453 117.873 54.5121C117.543 54.5854 117.509 54.7572 117.263 54.7572C116.932 54.7572 115.559 54.1712 115.559 53.9769C115.559 53.9402 115.607 53.9149 115.694 53.9149C115.756 53.9149 115.855 53.929 115.963 53.9515C116.76 54.0388 117.74 54.0755 118.783 54.0755C120.609 54.0755 122.63 53.9769 124.198 53.8782C124.848 53.7937 124.662 53.6106 125.253 53.6106C125.583 53.6106 126.553 53.6106 126.553 54.0135C126.553 54.16 126.406 54.3065 126.16 54.3318C125.402 54.3065 124.713 54.2952 123.882 54.2952C123.232 54.2952 122.486 54.3065 121.556 54.3318C121.556 57.2252 121.556 58.3634 121.31 59.1212C121.2 59.4029 121.089 59.5607 120.993 59.5607C120.88 59.5607 120.807 59.3522 120.796 58.8789V54.36L120.79 54.3544ZM118.978 52.695C118.891 53.0359 118.696 53.3176 118.501 53.3176C118.376 53.3176 118.314 53.1345 118.303 52.8415C118.303 52.5964 118.28 50.0918 118.269 49.6889C118.243 49.4579 118.229 49.3706 117.447 49.1396C117.3 49.1029 117.203 49.041 117.203 48.979C117.203 48.917 117.314 48.8438 117.608 48.7959C118.894 48.8832 119.04 49.0156 119.04 49.1875C119.04 49.2241 119.026 49.3706 119.026 49.4072V50.2383L123.059 50.1397V49.1875C123.034 49.0663 122.765 48.8832 122.285 48.686C122.13 48.6381 122.028 48.5648 122.028 48.5141C122.028 48.4522 122.141 48.4043 122.432 48.3789C123.67 48.5395 123.842 48.6465 123.842 48.855C123.842 48.9283 123.817 49.0128 123.817 49.1114C123.817 50.2101 123.817 52.3118 123.633 52.7034C123.534 52.9007 123.387 53.0838 123.252 53.0838C123.153 53.0838 123.065 52.9485 123.057 52.5936L118.975 52.6922L118.978 52.695ZM119.026 50.5679V52.3513L123.059 52.2668V50.4834L119.026 50.5679Z" fill="white"/>
<path d="M133.187 51.9959C133.063 53.1679 132.181 54.0243 130.587 54.0243C128.993 54.0243 128.086 52.9256 128.086 51.8747C128.086 50.945 128.747 50.0294 130.11 49.8097L130.183 49.7843C130.415 49.773 130.525 49.6491 130.525 49.5026C130.525 49.4406 130.511 49.3814 130.477 49.3194C130.378 49.2462 130.316 49.1729 130.316 49.111C130.316 49.0743 130.364 49.0377 130.463 49.0377C130.779 49.0377 131.195 49.2575 131.195 49.4406C131.195 49.5758 131.051 49.6857 131.011 49.8068C132.469 50.0012 133.131 50.8464 133.167 51.6268L133.182 51.993L133.187 51.9959ZM128.826 51.9113C128.826 52.7312 129.414 53.5369 130.579 53.5369C131.853 53.5369 132.503 52.7312 132.503 51.9113C132.503 51.0915 131.853 50.2604 130.579 50.2604C129.417 50.2604 128.826 51.0915 128.826 51.9113ZM136.104 55.3682C136.567 55.3935 136.703 55.4555 136.703 55.54C136.703 55.6386 136.534 55.7851 136.483 55.9682C136.336 56.7881 136.093 57.8981 135.994 58.3376C136.361 58.3996 136.522 58.5207 136.522 58.6306C136.522 58.7151 136.375 58.8024 136.155 58.8024C135.335 58.825 132.871 58.8869 132.074 58.8869C131.986 59.3631 131.817 59.6307 131.684 59.6307C131.571 59.6307 131.489 59.4842 131.463 59.1546C131.424 58.7517 131.364 57.1402 131.268 56.2359C131.243 56.0753 131.229 55.9541 130.559 55.7598C130.435 55.7231 130.299 55.6752 130.299 55.6133C130.299 55.5513 130.412 55.4921 130.706 55.4414C131.183 55.4668 131.771 55.5513 132.077 55.6133C132.639 55.602 134.736 55.5513 135.349 55.4921C135.643 55.4921 135.485 55.3682 135.926 55.3682H136.112H136.104ZM134.829 58.5207C135.185 58.47 135.259 58.4474 135.587 58.3601C135.621 57.7995 135.686 56.4049 135.686 55.8077C135.01 55.8584 133.074 55.895 132.167 55.9316C132.105 56.0161 132.006 55.9936 132.006 56.1401L132.079 58.5601L134.826 58.5235L134.829 58.5207ZM135.762 49.3335C135.762 49.1138 135.38 48.8321 134.694 48.5757C134.484 48.5052 134.377 48.4292 134.377 48.3672C134.377 48.2939 134.524 48.2461 134.818 48.2207C134.88 48.2207 136.582 48.4404 136.582 48.8208C136.582 48.9053 136.534 49.0152 136.534 49.1758V52.6692C136.534 53.1819 136.483 53.9144 136.336 54.3568C136.225 54.6385 136.093 54.785 135.98 54.785C135.867 54.785 135.785 54.6131 135.785 54.2243L135.762 49.3363V49.3335Z" fill="white"/>
<path d="M138.908 54.1708C141.079 52.7537 142.45 50.4576 142.45 50.2632C142.45 50.1392 142.303 49.9448 141.777 49.5673C141.616 49.4434 141.542 49.3588 141.542 49.2969C141.542 49.2349 141.63 49.1983 141.763 49.1983C141.836 49.1983 141.91 49.2123 142.006 49.2208C142.046 49.2349 143.416 49.7955 143.416 50.1618C143.416 50.3815 143.108 50.6632 142.679 51.345C143.134 51.8212 143.388 52.0409 143.719 52.2635C144.295 52.6917 144.233 52.2747 145.044 53.4974C145.118 53.6073 145.154 53.7172 145.154 53.8158C145.154 53.9876 145.044 54.0975 144.886 54.0975C144.776 54.0975 144.643 54.0355 144.504 53.889C144.027 53.3763 143.074 52.2747 142.484 51.5817C141.441 52.7678 140.412 53.6834 139.038 54.3314C138.866 54.4159 138.756 54.4525 138.696 54.4525C138.657 54.4525 138.648 54.4412 138.648 54.4159C138.648 54.368 138.73 54.2806 138.906 54.1708H138.908ZM145.061 55.2582C145.061 55.1596 145.01 55.0385 144.914 54.9399C144.841 54.892 144.801 54.83 144.801 54.7821C144.801 54.7342 144.852 54.6948 144.948 54.6948C145.183 54.6948 145.759 54.9399 145.759 55.1117C145.759 55.2216 145.624 55.3202 145.573 55.4667C146.932 55.7118 147.571 56.5767 147.571 57.4219C147.571 58.3629 146.74 59.3996 145.157 59.3996C143.575 59.3996 142.806 58.4333 142.806 57.4078C142.806 56.5401 143.481 55.647 144.877 55.4526C145.002 55.4385 145.064 55.354 145.064 55.2554L145.061 55.2582ZM143.481 57.3599C143.481 58.0952 144.058 58.839 145.197 58.839C146.336 58.839 146.912 58.0952 146.912 57.3599C146.912 56.6246 146.336 55.8583 145.197 55.8583C144.058 55.8583 143.481 56.6021 143.481 57.3599ZM146.887 49.2602C146.873 49.1504 146.545 48.9053 145.833 48.601C145.646 48.539 145.55 48.4658 145.55 48.4038C145.55 48.3305 145.697 48.2826 145.991 48.2686C146.567 48.3305 147.006 48.4658 147.398 48.5869C147.656 48.6855 147.715 48.77 147.715 48.8799C147.715 48.9672 147.667 49.0743 147.667 49.2208L147.653 52.6044C147.825 52.5903 147.947 52.6044 148.133 52.5818C148.684 52.4579 148.464 52.2381 149.32 52.2381C149.603 52.2381 150.078 52.2381 150.078 52.5677C150.078 52.7142 149.942 52.8607 149.736 52.8748L147.639 52.9227C147.63 53.9482 147.557 54.4722 147.43 54.8159C147.319 55.061 147.172 55.2442 147.062 55.2442C146.966 55.2442 146.878 55.0977 146.878 54.6948V49.2602H146.887Z" fill="white"/>
<path d="M150.925 55.7598C153.353 53.768 154.407 51.3029 154.407 50.9704C154.407 50.7873 153.879 50.4098 153.522 50.2379C153.449 50.1872 153.339 50.114 153.339 50.0548C153.339 49.9956 153.421 49.9449 153.681 49.9449C154.048 49.9449 154.916 50.3365 155.272 50.5929C155.371 50.6408 155.41 50.714 155.41 50.8014C155.41 51.0099 154.797 52.1452 154.647 52.4269C155.088 52.8918 155.492 53.3313 155.874 53.6609C156.241 54.0018 156.657 53.8328 157.123 54.8808C157.211 55.078 157.247 55.2358 157.247 55.3569C157.247 55.5513 157.148 55.6612 157.013 55.6612C156.852 55.6612 156.631 55.526 156.436 55.2217C156.168 54.878 155.04 53.4609 154.427 52.7397C153.214 54.4864 151.095 56.0641 150.727 56.0641C150.705 56.0641 150.693 56.05 150.693 56.0387C150.693 55.9908 150.767 55.8922 150.925 55.757V55.7598ZM159.062 49.3561C159.039 49.1251 158.672 48.8321 157.974 48.5278C157.801 48.4658 157.702 48.3926 157.702 48.3306C157.702 48.2574 157.827 48.1954 158.109 48.1729C158.881 48.294 159.31 48.4658 159.604 48.5645C159.788 48.6377 159.825 48.7222 159.825 48.8321C159.825 48.9307 159.785 49.0293 159.785 49.1617L159.771 56.3571C159.771 58.6024 159.698 58.9095 159.477 59.3744C159.395 59.5209 159.308 59.5941 159.234 59.5941C159.135 59.5941 159.062 59.4476 159.062 59.0701V49.3589V49.3561Z" fill="white"/>
<path d="M167.006 50.2637C167.665 50.1398 167.348 49.982 168.34 49.9707C168.77 49.9848 168.976 50.1426 168.976 50.2891C168.976 50.4243 168.79 50.5455 168.473 50.5455C167.433 50.5595 166.732 50.6074 165.997 50.6074C166.167 50.8159 166.229 50.9371 166.229 51.0357C166.229 51.1596 166.133 51.2329 166.108 51.3653C167.467 51.5259 168.106 52.3316 168.106 53.112C168.106 53.9431 167.382 54.87 165.853 54.87C164.516 54.87 163.683 54.0023 163.683 53.05C163.683 52.2922 164.259 51.5343 165.571 51.3625C165.681 51.3005 165.726 51.216 165.726 51.1061C165.726 50.9709 165.644 50.8131 165.531 50.6553C165.175 50.6694 164.7 50.692 164.197 50.7539C163.929 50.8046 163.878 50.8779 163.731 50.8779C163.584 50.8779 162.617 50.5483 162.617 50.3173C162.617 50.2806 162.665 50.2665 162.753 50.2665C162.792 50.2665 162.852 50.2665 162.914 50.2806C163.476 50.3539 163.994 50.3905 164.581 50.3905C165.118 50.3905 166.198 50.3173 167.009 50.2665L167.006 50.2637ZM165.299 49.3847C164.895 49.3115 164.307 48.8833 164.307 48.7508C164.307 48.7142 164.333 48.6889 164.406 48.6889C164.468 48.6889 164.567 48.703 164.689 48.7396C165.364 48.8635 165.655 48.8635 166.712 48.8635C167.068 48.8748 167.263 48.9988 167.263 49.1312C167.263 49.2551 167.068 49.3763 166.653 49.3988L165.302 49.3876L165.299 49.3847ZM164.358 53.0218C164.358 53.6698 164.847 54.3291 165.828 54.3291C166.893 54.3291 167.422 53.6698 167.422 53.0218C167.422 52.3739 166.893 51.7034 165.828 51.7034C164.847 51.7034 164.358 52.3767 164.358 53.0218ZM166.342 59.1551C166.303 58.7522 166.243 57.3717 166.147 56.4787C166.122 56.2702 166.108 56.211 165.438 55.9913C165.313 55.9546 165.178 55.9039 165.178 55.8448C165.178 55.7941 165.291 55.7349 165.585 55.6842C166.062 55.7095 166.65 55.7941 166.955 55.856C167.518 55.842 169.615 55.7941 170.228 55.7321C170.522 55.7321 170.375 55.5968 170.782 55.5968C170.844 55.5968 170.904 55.5968 170.991 55.6081C171.455 55.6335 171.576 55.6955 171.576 55.78C171.576 55.8786 171.407 56.011 171.367 56.2082C171.135 57.1858 170.977 57.8929 170.878 58.3324C171.246 58.3944 171.407 58.5156 171.407 58.6254C171.407 58.7099 171.26 58.7973 171.039 58.7973C170.22 58.8198 167.755 58.8818 166.958 58.8818C166.871 59.3579 166.701 59.6256 166.568 59.6256C166.455 59.6256 166.373 59.4791 166.348 59.1494L166.342 59.1551ZM169.714 58.5212C170.07 58.4705 170.143 58.4479 170.471 58.3606C170.505 57.8 170.57 56.6505 170.57 56.0533C169.895 56.104 167.959 56.1406 167.052 56.1772C166.989 56.2505 166.89 56.2392 166.89 56.3857L166.964 58.5606L169.711 58.524L169.714 58.5212ZM170.706 49.1988C170.692 49.0636 170.225 48.7959 169.714 48.5508C169.553 48.4888 169.38 48.4043 169.38 48.3198C169.38 48.2578 169.493 48.2099 169.821 48.1846C170.262 48.2184 170.754 48.4043 171.082 48.5255C171.415 48.6353 171.497 48.7339 171.497 48.8664C171.497 48.9537 171.449 49.0636 171.426 49.2101V53.0923C171.401 53.4952 171.412 54.4108 171.059 54.8644C170.986 54.9376 170.935 54.9742 170.887 54.9742C170.765 54.9742 170.703 54.7432 170.703 54.3657V52.6049L169.637 52.6556C169.366 52.7035 169.344 52.7908 169.219 52.7908C169.075 52.7908 168.312 52.5091 168.312 52.3401C168.312 52.3034 168.36 52.2781 168.473 52.2781C168.521 52.2781 168.583 52.2781 168.657 52.2922C168.903 52.3063 169.137 52.3147 169.366 52.3147C169.869 52.3147 170.336 52.2781 170.703 52.2668V49.2016L170.706 49.1988Z" fill="white"/>
<path d="M177.677 51.0067C177.668 50.8855 177.419 50.6404 176.967 50.3587C176.735 50.2488 176.676 50.1136 177.154 50.1136C177.388 50.1136 178.609 50.5164 178.609 50.8489C178.609 50.9475 178.426 51.4349 177.73 52.5477C177.951 52.8294 178.182 53.0971 178.392 53.3168C178.818 53.8296 179.211 53.6718 179.406 54.8663C179.406 54.903 179.42 54.9283 179.42 54.9649C179.42 55.196 179.285 55.3312 179.152 55.3312C179.039 55.3312 178.917 55.2692 178.832 55.1114C178.601 54.6353 178.149 53.6324 177.535 52.7675C176.088 54.5029 174.607 55.4411 174.359 55.4411C174.325 55.4411 174.311 55.4298 174.311 55.4044C174.311 55.3565 174.398 55.2579 174.554 55.1227C175.718 54.1451 177.055 52.8632 177.668 51.1024L177.677 51.0038V51.0067ZM177.849 56.7229C177.835 56.5764 177.665 56.3933 176.956 56.2581C176.721 56.2355 176.622 56.1848 176.622 56.1228C176.622 55.951 177.077 55.8918 177.32 55.8918C177.445 55.8918 178.044 55.9397 178.18 55.9397C178.598 55.9397 178.66 56.0749 178.66 56.2693C178.66 56.3567 178.646 56.4637 178.646 56.5877V57.9682C178.646 58.3823 178.708 58.5175 179.208 58.5175H180.751C183.216 58.5035 182.224 58.0893 183.337 58.0893C183.778 58.0893 184.296 58.0893 184.296 58.4668C184.296 58.6387 184.123 58.8077 183.829 58.8077H178.988C178.474 58.8077 177.886 58.6359 177.886 57.9879L177.846 56.7173L177.849 56.7229ZM180.63 50.1868C180.63 49.8938 180.166 49.6262 179.785 49.4543C179.638 49.4036 179.502 49.3304 179.502 49.2712C179.502 49.212 179.613 49.1472 179.932 49.1247C180.24 49.1472 180.715 49.3219 181.045 49.3924C181.339 49.5163 181.402 49.6262 181.402 49.7473C181.402 49.8572 181.353 49.9671 181.339 50.1136V54.9762C181.291 56.9793 180.898 56.9793 180.862 56.9793C180.74 56.9793 180.641 56.675 180.641 56.0862L180.627 52.7506L179.929 52.8013C179.621 52.8632 179.61 52.959 179.463 52.959C179.316 52.959 178.57 52.7027 178.57 52.5308C178.57 52.4688 178.632 52.4688 178.951 52.4688C179.734 52.4322 180.175 52.4463 180.627 52.4181V50.184L180.63 50.1868ZM182.727 49.4064C182.713 49.1867 182.261 48.8824 181.769 48.626C181.597 48.5415 181.486 48.4683 181.486 48.4063C181.486 48.3443 181.608 48.2964 181.89 48.2852C182.492 48.395 182.956 48.5782 183.239 48.688C183.459 48.7754 183.51 48.8599 183.51 48.9585C183.51 49.043 183.47 49.1416 183.47 49.2628L183.448 55.5791C183.422 56.7145 183.188 57.3146 182.956 57.3878C182.846 57.3878 182.736 57.2526 182.724 56.644V49.4121L182.727 49.4064Z" fill="white"/>
<path d="M186.827 50.945C186.827 50.8352 186.375 50.6013 185.968 50.4802C185.821 50.4435 185.711 50.3928 185.711 50.3196C185.711 50.2576 185.821 50.1844 186.101 50.1252C186.689 50.1252 187.254 50.2097 187.5 50.283C187.709 50.2971 187.915 50.3083 188.15 50.3083C188.54 50.3083 188.955 50.283 189.41 50.2717C189.947 50.1365 189.654 49.9421 190.66 49.928C191.151 49.928 191.349 50.0998 191.349 50.2576C191.349 50.4154 191.177 50.5619 190.883 50.5619C189.648 50.5985 188.373 50.6126 187.771 50.6351C187.65 50.7225 187.61 50.6239 187.599 50.8436V53.0524C187.918 53.0411 188.373 53.0411 188.862 53.0157C189.365 52.9537 189.193 52.6861 190.318 52.6861C190.747 52.6861 190.832 52.8805 190.832 52.9791C190.832 53.1256 190.671 53.2721 190.354 53.2862C189.583 53.2975 188.452 53.3482 187.596 53.3707V55.6668C187.588 55.9344 187.67 56.0584 187.867 56.0584C187.901 56.0584 187.941 56.0584 187.989 56.0443C189.227 55.9232 190.476 55.6893 191.957 55.1653C192.118 55.1033 192.24 55.078 192.313 55.078C192.364 55.078 192.386 55.0921 192.386 55.1287C192.386 55.1794 192.29 55.2639 192.078 55.3851C189.874 56.4106 187.619 56.8022 187.511 56.8022C187.13 56.8022 186.875 56.2528 186.836 55.9711L186.822 50.9394L186.827 50.945ZM193.935 49.2237C193.884 48.9673 193.212 48.6377 192.844 48.4912C192.649 48.4405 192.502 48.3559 192.502 48.2827C192.502 48.2207 192.613 48.1728 192.881 48.1475C194.475 48.4038 194.732 48.5729 194.732 48.8067C194.732 48.9166 194.67 49.0377 194.67 49.1983V57.5544C194.67 58.8616 194.376 59.5941 194.144 59.5941C193.983 59.5941 193.947 59.3377 193.935 58.8982V53.182C193.469 53.196 193.124 53.2327 192.658 53.2918C192.389 53.3144 192.353 53.413 192.228 53.413C192.059 53.413 191.335 53.058 191.335 52.9481C191.335 52.9256 191.383 52.9002 191.496 52.9002C191.632 52.9002 192.268 52.9115 192.415 52.9115C192.977 52.9115 193.455 52.9002 193.935 52.8495V49.2209V49.2237Z" fill="white"/>
</g>
<defs>
<clipPath id="clip0_307_23797">
<rect width="200" height="62" fill="white"/>
</clipPath>
</defs>
</svg>
