<svg width="70" height="63" viewBox="0 0 70 63" fill="none" xmlns="http://www.w3.org/2000/svg">
<g clip-path="url(#clip0_2008_29999)">
<path d="M36.9439 48.4967H5.45483C2.91972 48.4967 0.865235 46.4514 0.865235 43.9298V8.16448C0.864324 5.64191 2.91972 3.59668 5.45483 3.59668H9.15054" stroke="#A6A6A6" stroke-width="1.9" stroke-linecap="round" stroke-linejoin="round"/>
<path d="M49.0938 3.59668H52.7895C55.3246 3.59668 57.3791 5.64191 57.3791 8.16358V29.0987" stroke="#A6A6A6" stroke-width="1.9" stroke-linecap="round" stroke-linejoin="round"/>
<path d="M1.11719 12.7178H57.1281" stroke="#A6A6A6" stroke-width="1.9" stroke-linecap="round" stroke-linejoin="round"/>
<path d="M9.18841 0.710938L9.1875 5.94267" stroke="#A6A6A6" stroke-width="1.515" stroke-linecap="round" stroke-linejoin="round"/>
<path d="M49.0938 0.860352V6.09209" stroke="#A6A6A6" stroke-width="1.9" stroke-linecap="round" stroke-linejoin="round"/>
<path d="M20.1309 22.4702H21.7075" stroke="#65277A" stroke-width="1.9" stroke-linecap="round" stroke-linejoin="round"/>
<path d="M28.334 22.4702H29.9097" stroke="#65277A" stroke-width="1.9" stroke-linecap="round" stroke-linejoin="round"/>
<path d="M11.9277 27.9111H13.5034" stroke="#65277A" stroke-width="1.9" stroke-linecap="round" stroke-linejoin="round"/>
<path d="M20.1309 27.9111H21.7075" stroke="#65277A" stroke-width="1.9" stroke-linecap="round" stroke-linejoin="round"/>
<path d="M28.334 27.9111H29.9097" stroke="#65277A" stroke-width="1.9" stroke-linecap="round" stroke-linejoin="round"/>
<path d="M11.9277 33.353H13.5034" stroke="#65277A" stroke-width="1.9" stroke-linecap="round" stroke-linejoin="round"/>
<path d="M20.1309 33.353H21.7075" stroke="#65277A" stroke-width="1.9" stroke-linecap="round" stroke-linejoin="round"/>
<path d="M28.334 33.353H29.9097" stroke="#65277A" stroke-width="1.9" stroke-linecap="round" stroke-linejoin="round"/>
<path d="M11.9277 38.7949H13.5034" stroke="#65277A" stroke-width="1.9" stroke-linecap="round" stroke-linejoin="round"/>
<path d="M20.1309 38.7949H21.7075" stroke="#65277A" stroke-width="1.9" stroke-linecap="round" stroke-linejoin="round"/>
<path d="M28.334 38.7949H29.9097" stroke="#65277A" stroke-width="1.9" stroke-linecap="round" stroke-linejoin="round"/>
<path d="M13.0029 3.59668H45.2412" stroke="#A6A6A6" stroke-width="1.9" stroke-linecap="round" stroke-linejoin="round"/>
<path d="M62.3245 29.099V13.085C62.3245 10.5624 60.2691 8.51807 57.7349 8.51807H57.3799" stroke="#A6A6A6" stroke-width="1.9" stroke-linecap="round" stroke-linejoin="round"/>
<path d="M5.81055 48.4966V48.8498C5.81055 51.3724 7.86594 53.4167 10.4001 53.4167H37.4853" stroke="#A6A6A6" stroke-width="1.9" stroke-linecap="round" stroke-linejoin="round"/>
<path d="M36.5361 22.4702H38.1127" stroke="#65277A" stroke-width="1.9" stroke-linecap="round" stroke-linejoin="round"/>
<path d="M44.7402 22.4702H46.3159" stroke="#65277A" stroke-width="1.9" stroke-linecap="round" stroke-linejoin="round"/>
<path d="M36.5361 27.9111H38.1127" stroke="#65277A" stroke-width="1.9" stroke-linecap="round" stroke-linejoin="round"/>
<path d="M44.7402 27.9111H46.3159" stroke="#65277A" stroke-width="1.9" stroke-linecap="round" stroke-linejoin="round"/>
<path d="M36.5361 33.353H38.1127" stroke="#65277A" stroke-width="1.9" stroke-linecap="round" stroke-linejoin="round"/>
<path d="M47.6058 33.3534C44.1204 33.3534 41.2949 36.165 41.2949 39.6332V50.7198C41.2949 54.188 44.1204 56.9995 47.6058 56.9995H47.9872C48.2876 56.9995 48.5307 57.2413 48.5307 57.5403V61.5972C48.5307 62.0791 49.116 62.3209 49.4592 61.9794L55.183 57.1571C55.2849 57.0557 55.4233 56.9986 55.5671 56.9986H62.8247C66.3101 56.9986 69.1356 54.1871 69.1356 50.7189V39.6323C69.1356 36.1641 66.3101 33.3525 62.8247 33.3525H47.6058V33.3534Z" stroke="#A6A6A6" stroke-width="1.9" stroke-linecap="round" stroke-linejoin="round"/>
<path d="M48.2402 42.6294H62.1902" stroke="#65277A" stroke-width="1.9" stroke-linecap="round" stroke-linejoin="round"/>
<path d="M48.2402 47.7241H56.217" stroke="#65277A" stroke-width="1.9" stroke-linecap="round" stroke-linejoin="round"/>
</g>
<defs>
<clipPath id="clip0_2008_29999">
<rect width="70" height="63" fill="white"/>
</clipPath>
</defs>
</svg>
