<svg width="65" height="51" viewBox="0 0 65 51" fill="none" xmlns="http://www.w3.org/2000/svg">
<g clip-path="url(#clip0_180_11246)">
<path d="M19.2973 42.657C19.8584 42.657 20.3132 42.2021 20.3132 41.641C20.3132 41.0799 19.8584 40.625 19.2973 40.625C18.7361 40.625 18.2812 41.0799 18.2812 41.641C18.2812 42.2021 18.7361 42.657 19.2973 42.657Z" fill="#040000"/>
<path d="M38.5941 46.719C39.1552 46.719 39.6101 46.2641 39.6101 45.703C39.6101 45.1419 39.1552 44.687 38.5941 44.687C38.033 44.687 37.5781 45.1419 37.5781 45.703C37.5781 46.2641 38.033 46.719 38.5941 46.719Z" fill="#040000"/>
<path d="M26.4066 46.719C26.9677 46.719 27.4226 46.2641 27.4226 45.703C27.4226 45.1419 26.9677 44.687 26.4066 44.687C25.8455 44.687 25.3906 45.1419 25.3906 45.703C25.3906 46.2641 25.8455 46.719 26.4066 46.719Z" fill="#040000"/>
<path d="M5.0785 42.657C5.63962 42.657 6.0945 42.2021 6.0945 41.641C6.0945 41.0799 5.63962 40.625 5.0785 40.625C4.51738 40.625 4.0625 41.0799 4.0625 41.641C4.0625 42.2021 4.51738 42.657 5.0785 42.657Z" fill="#040000"/>
<path d="M12.1879 46.719C12.749 46.719 13.2039 46.2641 13.2039 45.703C13.2039 45.1419 12.749 44.687 12.1879 44.687C11.6268 44.687 11.1719 45.1419 11.1719 45.703C11.1719 46.2641 11.6268 46.719 12.1879 46.719Z" fill="#040000"/>
<path d="M45.7035 42.657C46.2646 42.657 46.7195 42.2021 46.7195 41.641C46.7195 41.0799 46.2646 40.625 45.7035 40.625C45.1424 40.625 44.6875 41.0799 44.6875 41.641C44.6875 42.2021 45.1424 42.657 45.7035 42.657Z" fill="#040000"/>
<path d="M32.5004 42.657C33.0615 42.657 33.5164 42.2021 33.5164 41.641C33.5164 41.0799 33.0615 40.625 32.5004 40.625C31.9393 40.625 31.4844 41.0799 31.4844 41.641C31.4844 42.2021 31.9393 42.657 32.5004 42.657Z" fill="#040000"/>
<path d="M59.9223 42.657C60.4834 42.657 60.9383 42.2021 60.9383 41.641C60.9383 41.0799 60.4834 40.625 59.9223 40.625C59.3611 40.625 58.9062 41.0799 58.9062 41.641C58.9062 42.2021 59.3611 42.657 59.9223 42.657Z" fill="#040000"/>
<path d="M52.8129 46.719C53.374 46.719 53.8289 46.2641 53.8289 45.703C53.8289 45.1419 53.374 44.687 52.8129 44.687C52.2518 44.687 51.7969 45.1419 51.7969 45.703C51.7969 46.2641 52.2518 46.719 52.8129 46.719Z" fill="#040000"/>
<path d="M61.953 50.781H3.047C1.367 50.781 0 49.414 0 47.734V31.484C0 29.804 1.367 28.437 3.047 28.437H19.297C19.858 28.437 20.313 28.891 20.313 29.453C20.313 30.015 19.858 30.469 19.297 30.469H3.047C2.487 30.469 2.031 30.924 2.031 31.485V47.735C2.031 48.295 2.487 48.751 3.047 48.751H61.953C62.513 48.751 62.969 48.296 62.969 47.735V31.485C62.969 30.925 62.513 30.469 61.953 30.469H43.672C43.111 30.469 42.656 30.015 42.656 29.453C42.656 28.891 43.111 28.437 43.672 28.437H61.953C63.633 28.437 65 29.804 65 31.484V47.734C65 49.414 63.633 50.781 61.953 50.781Z" fill="#040000"/>
<path d="M53.486 37.5781C50.671 37.5781 49.247 37.0271 47.869 36.4941C46.61 36.0071 45.421 35.5471 42.986 35.5471C40.551 35.5471 39.364 36.0071 38.106 36.4941C36.73 37.0271 35.306 37.5781 32.493 37.5781C29.68 37.5781 28.255 37.0271 26.879 36.4941C25.62 36.0071 24.432 35.5471 21.998 35.5471C19.564 35.5471 18.376 36.0071 17.118 36.4941C15.742 37.0271 14.319 37.5781 11.506 37.5781C8.693 37.5781 7.271 37.0271 5.894 36.4941C4.636 36.0071 3.449 35.5471 1.016 35.5471C0.455 35.5471 0 35.0931 0 34.5311C0 33.9691 0.455 33.5151 1.016 33.5151C3.828 33.5151 5.251 34.0661 6.628 34.5991C7.886 35.0861 9.073 35.5461 11.506 35.5461C13.939 35.5461 15.127 35.0861 16.385 34.5991C17.762 34.0661 19.185 33.5151 21.998 33.5151C24.811 33.5151 26.236 34.0661 27.612 34.5991C28.871 35.0861 30.059 35.5461 32.493 35.5461C34.927 35.5461 36.115 35.0861 37.373 34.5991C38.749 34.0661 40.173 33.5151 42.986 33.5151C45.799 33.5151 47.225 34.0661 48.602 34.5991C49.861 35.0861 51.05 35.5461 53.486 35.5461C55.922 35.5461 57.11 35.0861 58.369 34.5991C59.747 34.0661 61.171 33.5151 63.985 33.5151C64.546 33.5151 65.001 33.9691 65.001 34.5311C65.001 35.0931 64.546 35.5471 63.985 35.5471C61.55 35.5471 60.361 36.0071 59.102 36.4941C57.724 37.0271 56.3 37.5781 53.486 37.5781Z" fill="#040000"/>
<path d="M44.6869 26.407C44.4749 26.407 44.2609 26.341 44.0779 26.204C43.6289 25.867 43.5389 25.23 43.8759 24.782C45.7359 22.306 46.7189 19.357 46.7189 16.25C46.7189 8.41002 40.3409 2.03102 32.4999 2.03102C30.0039 2.03102 27.5499 2.68702 25.4029 3.92602C24.9169 4.20602 24.2959 4.04002 24.0149 3.55402C23.7349 3.06802 23.9009 2.44702 24.3869 2.16602C26.8419 0.749023 29.6479 -0.000976562 32.4999 -0.000976562C41.4599 -0.000976562 48.7499 7.28902 48.7499 16.249C48.7499 19.799 47.6259 23.171 45.4989 26.001C45.2999 26.267 44.9959 26.407 44.6869 26.407Z" fill="#65277A"/>
<path d="M32.5 32.4998C23.54 32.4998 16.25 25.2098 16.25 16.2498C16.25 12.6998 17.374 9.32883 19.5 6.49883C19.837 6.05083 20.473 5.95983 20.922 6.29683C21.37 6.63383 21.461 7.27083 21.124 7.71883C19.265 10.1948 18.282 13.1438 18.282 16.2498C18.282 24.0898 24.66 30.4688 32.501 30.4688C34.813 30.4688 37.108 29.9018 39.135 28.8298C39.633 28.5678 40.245 28.7578 40.508 29.2528C40.77 29.7488 40.581 30.3638 40.085 30.6258C37.766 31.8528 35.143 32.5018 32.501 32.5018L32.5 32.4998Z" fill="#65277A"/>
<path d="M44.6868 26.4059C44.2128 26.4059 43.7878 26.0729 43.6918 25.5899C43.5818 25.0399 43.9378 24.5049 44.4878 24.3949L49.5658 23.3789C50.1168 23.2669 50.6518 23.6249 50.7608 24.1749C50.8708 24.7249 50.5148 25.2599 49.9648 25.3699L44.8868 26.3859C44.8198 26.3999 44.7528 26.4059 44.6868 26.4059Z" fill="#65277A"/>
<path d="M44.6882 26.406C44.3152 26.406 43.9572 26.201 43.7792 25.845L41.7482 21.783C41.4972 21.281 41.7002 20.671 42.2022 20.42C42.7052 20.171 43.3142 20.373 43.5652 20.874L45.5962 24.936C45.8472 25.438 45.6442 26.048 45.1422 26.299C44.9962 26.371 44.8402 26.406 44.6882 26.406Z" fill="#65277A"/>
<path d="M15.2337 9.14115C14.7597 9.14115 14.3347 8.80815 14.2387 8.32515C14.1287 7.77515 14.4847 7.24015 15.0347 7.13015L20.1127 6.11415C20.6657 5.99915 21.1987 6.36015 21.3077 6.91015C21.4177 7.46015 21.0617 7.99515 20.5117 8.10515L15.4337 9.12115C15.3667 9.13515 15.2997 9.14115 15.2337 9.14115Z" fill="#65277A"/>
<path d="M22.3445 12.1879C21.9715 12.1879 21.6135 11.9829 21.4355 11.6269L19.4045 7.56494C19.1535 7.06294 19.3565 6.45294 19.8585 6.20194C20.3615 5.95294 20.9705 6.15394 21.2215 6.65594L23.2525 10.7179C23.5035 11.2199 23.3005 11.8299 22.7985 12.0809C22.6525 12.1529 22.4975 12.1879 22.3455 12.1879H22.3445Z" fill="#65277A"/>
<path d="M32.4996 26.4059C28.5796 26.4059 25.3906 23.2159 25.3906 19.2969C25.3906 15.7179 31.0226 7.46187 31.6646 6.53187C32.0436 5.98287 32.9566 5.98287 33.3356 6.53187C33.9776 7.46087 39.6096 15.7179 39.6096 19.2969C39.6096 23.2169 36.4196 26.4059 32.4996 26.4059ZM32.4996 8.92987C30.2616 12.3459 27.4216 17.3329 27.4216 19.2969C27.4216 22.0969 29.6996 24.3749 32.4996 24.3749C35.2996 24.3749 37.5776 22.0969 37.5776 19.2969C37.5776 17.3319 34.7376 12.3459 32.4996 8.92987Z" fill="#65277A"/>
<path d="M32.5004 22.3438C31.9394 22.3438 31.4844 21.8898 31.4844 21.3278C31.4844 20.7658 31.9394 20.3118 32.5004 20.3118C33.0614 20.3118 33.5164 19.8568 33.5164 19.2958C33.5164 18.7348 33.9714 18.2798 34.5324 18.2798C35.0934 18.2798 35.5484 18.7338 35.5484 19.2958C35.5484 20.9758 34.1814 22.3428 32.5014 22.3428L32.5004 22.3438Z" fill="#65277A"/>
</g>
<defs>
<clipPath id="clip0_180_11246">
<rect width="65" height="50.781" fill="white"/>
</clipPath>
</defs>
</svg>
